<svg xmlns="http://www.w3.org/2000/svg" viewBox="0 0 1200 630" width="1200" height="630">
  <defs>
    <linearGradient id="og_bg" x1="0%" y1="0%" x2="100%" y2="100%">
      <stop offset="0%" style="stop-color:#0A0A0A"/>
      <stop offset="100%" style="stop-color:#1D1D1F"/>
    </linearGradient>
    <radialGradient id="og_glow" cx="70%" cy="30%">
      <stop offset="0%" style="stop-color:#0071E3;stop-opacity:0.3"/>
      <stop offset="100%" style="stop-color:#0071E3;stop-opacity:0"/>
    </radialGradient>
  </defs>
  <rect width="1200" height="630" fill="url(#og_bg)"/>
  <rect width="1200" height="630" fill="url(#og_glow)"/>
  <!-- Decorative circle -->
  <circle cx="900" cy="200" r="300" fill="none" stroke="#0071E3" stroke-width="1" opacity="0.15"/>
  <circle cx="900" cy="200" r="200" fill="none" stroke="#0071E3" stroke-width="1" opacity="0.1"/>
  <!-- Film strip left -->
  <rect x="0" y="0" width="50" height="630" fill="black" opacity="0.4"/>
  <rect x="52" y="0" width="1" height="630" fill="#0071E3" opacity="0.2"/>
  <!-- Perforations -->
  <rect x="14" y="30" width="22" height="32" rx="3" fill="#0071E3" opacity="0.15"/>
  <rect x="14" y="90" width="22" height="32" rx="3" fill="#0071E3" opacity="0.15"/>
  <rect x="14" y="150" width="22" height="32" rx="3" fill="#0071E3" opacity="0.15"/>
  <rect x="14" y="210" width="22" height="32" rx="3" fill="#0071E3" opacity="0.15"/>
  <rect x="14" y="330" width="22" height="32" rx="3" fill="#0071E3" opacity="0.15"/>
  <rect x="14" y="390" width="22" height="32" rx="3" fill="#0071E3" opacity="0.15"/>
  <rect x="14" y="450" width="22" height="32" rx="3" fill="#0071E3" opacity="0.15"/>
  <rect x="14" y="510" width="22" height="32" rx="3" fill="#0071E3" opacity="0.15"/>
  <!-- Main text -->
  <text x="100" y="260" font-family="system-ui,sans-serif" font-size="90" font-weight="900" fill="white" letter-spacing="-3">MK STUDIO</text>
  <text x="100" y="330" font-family="system-ui,sans-serif" font-size="36" font-weight="400" fill="#0071E3" letter-spacing="12">PUNE</text>
  <text x="100" y="390" font-family="system-ui,sans-serif" font-size="22" font-weight="300" fill="#86868B" letter-spacing="1">Where Stories Come to Life · Since 2008</text>
  <!-- Stats -->
  <rect x="100" y="430" width="160" height="80" rx="12" fill="#0071E3" opacity="0.1"/>
  <text x="180" y="465" text-anchor="middle" font-family="system-ui,sans-serif" font-size="32" font-weight="800" fill="#0071E3">15+</text>
  <text x="180" y="490" text-anchor="middle" font-family="system-ui,sans-serif" font-size="11" fill="#86868B" letter-spacing="2">YEARS</text>
  <rect x="280" y="430" width="160" height="80" rx="12" fill="#0071E3" opacity="0.1"/>
  <text x="360" y="465" text-anchor="middle" font-family="system-ui,sans-serif" font-size="32" font-weight="800" fill="#0071E3">50+</text>
  <text x="360" y="490" text-anchor="middle" font-family="system-ui,sans-serif" font-size="11" fill="#86868B" letter-spacing="2">PRODUCTIONS</text>
  <rect x="460" y="430" width="180" height="80" rx="12" fill="#0071E3" opacity="0.1"/>
  <text x="550" y="465" text-anchor="middle" font-family="system-ui,sans-serif" font-size="32" font-weight="800" fill="#0071E3">200+</text>
  <text x="550" y="490" text-anchor="middle" font-family="system-ui,sans-serif" font-size="11" fill="#86868B" letter-spacing="2">CLIENTS</text>
</svg>