<svg xmlns="http://www.w3.org/2000/svg" viewBox="0 0 640 360" width="640" height="360">
  <defs>
    <linearGradient id="pg_jawani-zindabad" x1="0%" y1="0%" x2="100%" y2="100%">
      <stop offset="0%" style="stop-color:#0071E3"/>
      <stop offset="100%" style="stop-color:#34A8FF"/>
    </linearGradient>
    <linearGradient id="ov_jawani-zindabad" x1="0%" y1="0%" x2="0%" y2="100%">
      <stop offset="0%" style="stop-color:#000000;stop-opacity:0.2"/>
      <stop offset="100%" style="stop-color:#000000;stop-opacity:0.75"/>
    </linearGradient>
    <filter id="blur_jawani-zindabad"><feGaussianBlur stdDeviation="30"/></filter>
  </defs>
  <!-- Background -->
  <rect width="640" height="360" fill="url(#pg_jawani-zindabad)"/>
  <!-- Texture circles -->
  <circle cx="100" cy="100" r="200" fill="white" opacity="0.04" filter="url(#blur_jawani-zindabad)"/>
  <circle cx="550" cy="280" r="180" fill="white" opacity="0.06" filter="url(#blur_jawani-zindabad)"/>
  <!-- Film grain pattern -->
  <pattern id="grain_jawani-zindabad" x="0" y="0" width="4" height="4" patternUnits="userSpaceOnUse">
    <rect x="0" y="0" width="2" height="2" fill="white" opacity="0.03"/>
  </pattern>
  <rect width="640" height="360" fill="url(#grain_jawani-zindabad)"/>
  <!-- Overlay -->
  <rect width="640" height="360" fill="url(#ov_jawani-zindabad)"/>
  <!-- Film perforations left -->
  <rect x="0" y="0" width="30" height="360" fill="black" opacity="0.3"/>
  <rect x="32" y="0" width="1" height="360" fill="white" opacity="0.1"/>
  <rect x="8" y="20" width="14" height="22" rx="2" fill="white" opacity="0.2"/><rect x="8" y="56" width="14" height="22" rx="2" fill="white" opacity="0.2"/><rect x="8" y="92" width="14" height="22" rx="2" fill="white" opacity="0.2"/><rect x="8" y="128" width="14" height="22" rx="2" fill="white" opacity="0.2"/><rect x="8" y="164" width="14" height="22" rx="2" fill="white" opacity="0.2"/><rect x="8" y="200" width="14" height="22" rx="2" fill="white" opacity="0.2"/><rect x="8" y="236" width="14" height="22" rx="2" fill="white" opacity="0.2"/><rect x="8" y="272" width="14" height="22" rx="2" fill="white" opacity="0.2"/><rect x="8" y="308" width="14" height="22" rx="2" fill="white" opacity="0.2"/><rect x="8" y="344" width="14" height="22" rx="2" fill="white" opacity="0.2"/>
  <!-- Film perforations right -->
  <rect x="610" y="0" width="30" height="360" fill="black" opacity="0.3"/>
  <rect x="608" y="0" width="1" height="360" fill="white" opacity="0.1"/>
  <rect x="618" y="20" width="14" height="22" rx="2" fill="white" opacity="0.2"/><rect x="618" y="56" width="14" height="22" rx="2" fill="white" opacity="0.2"/><rect x="618" y="92" width="14" height="22" rx="2" fill="white" opacity="0.2"/><rect x="618" y="128" width="14" height="22" rx="2" fill="white" opacity="0.2"/><rect x="618" y="164" width="14" height="22" rx="2" fill="white" opacity="0.2"/><rect x="618" y="200" width="14" height="22" rx="2" fill="white" opacity="0.2"/><rect x="618" y="236" width="14" height="22" rx="2" fill="white" opacity="0.2"/><rect x="618" y="272" width="14" height="22" rx="2" fill="white" opacity="0.2"/><rect x="618" y="308" width="14" height="22" rx="2" fill="white" opacity="0.2"/><rect x="618" y="344" width="14" height="22" rx="2" fill="white" opacity="0.2"/>
  <!-- MK Studio watermark -->
  <text x="60" y="30" font-family="system-ui,sans-serif" font-size="10" fill="white" opacity="0.4" letter-spacing="3" font-weight="700">MK STUDIO PUNE</text>
  <!-- Type badge -->
  <rect x="58" y="44" width="112" height="20" rx="10" fill="white" opacity="0.15"/>
  <text x="66" y="58" font-family="system-ui,sans-serif" font-size="9" fill="white" letter-spacing="2" font-weight="700">FEATURE FILM</text>
  <!-- Year -->
  <text x="600" y="30" text-anchor="end" font-family="system-ui,sans-serif" font-size="10" fill="white" opacity="0.5" letter-spacing="2">2019</text>
  <!-- Title -->
  <text x="60" y="295" font-family="system-ui,sans-serif" font-size="34" fill="white" font-weight="800" letter-spacing="-0.5">JAWANI ZINDABAD</text>
  <!-- Tagline -->
  <text x="60" y="325" font-family="system-ui,sans-serif" font-size="11" fill="white" opacity="0.65" letter-spacing="2">🎉 YOUTH • LOVE • DREAMS</text>
  <!-- Play button -->
  <circle cx="580" cy="180" r="36" fill="white" opacity="0.15"/>
  <circle cx="580" cy="180" r="30" fill="white" opacity="0.1"/>
  <polygon points="572,166 572,194 600,180" fill="white" opacity="0.9"/>
</svg>